<svg width="247" height="66" viewBox="0 0 247 66" fill="none" xmlns="http://www.w3.org/2000/svg">
<g clip-path="url(#clip0_48_299)">
<path d="M29.4661 0.638005C30.0619 0.224141 30.7614 0.00335693 31.4768 0.00335693C32.1922 0.00335693 32.8917 0.224141 33.4875 0.638005C36.5886 2.67438 39.5632 4.91369 42.3937 7.3425C42.3937 7.3425 43.1648 7.90075 43.1859 6.9575C43.1106 5.73496 43.1805 4.50738 43.3938 3.30275C43.5095 2.99 43.7123 2.72065 43.9759 2.52948C44.2396 2.33831 44.552 2.23408 44.8729 2.23025C44.8729 2.23025 48.3706 2.41175 50.5919 2.7225C51.5841 2.86 52.3578 3.6905 52.4631 4.73C52.4631 4.73 53.8922 14.685 54.2133 18.2738C54.2133 18.2738 54.4896 20.0998 57.0214 23.1963C57.0214 23.1963 62.1614 30.7175 62.7588 32.1585C62.7588 32.1585 63.9537 34.76 61.3824 35.112C61.3824 35.112 56.6898 35.607 56.2371 35.717C55.934 35.7557 55.6571 35.9164 55.4655 36.1649C55.2738 36.4134 55.1825 36.7302 55.2107 37.048C55.2107 37.048 54.9633 54.362 53.7501 62.678C53.7501 62.678 53.4316 65.978 51.692 65.9037C51.692 65.9037 46.8678 65.7415 45.7466 65.7745C45.7466 65.7745 45.265 65.7745 45.3361 65.098C45.3361 65.098 47.7942 38.1013 46.1283 24.453C46.1283 24.453 46.0546 22.693 44.7702 22.3025C44.7702 22.3025 43.5991 21.8075 42.4779 23.3778C37.6119 30.4943 34.9484 38.9972 34.8456 47.7428C34.8456 47.7428 34.714 52.041 35.3404 53.1135C35.3404 53.1135 35.7299 53.867 37.7274 54.0375L40.254 54.395C40.254 54.395 40.7172 54.395 40.6751 55.0358C40.6751 55.0358 40.1013 62.9557 39.9382 64.3665C39.9286 64.6872 39.8653 65.0036 39.7513 65.3015C39.7513 65.3015 39.6592 65.571 38.867 65.538C38.867 65.538 27.7185 65.4555 26.4632 65.538C26.4632 65.538 25.9368 65.538 25.8263 65.2492C25.7131 64.9577 25.0525 55.0275 25.0735 53.6195C25.064 53.4768 25.0964 53.3344 25.1665 53.2116C25.2366 53.0887 25.341 52.9911 25.4657 52.932C26.3159 52.3707 27.0346 51.6169 27.5685 50.7263C28.1024 49.8357 28.4379 48.8311 28.5502 47.7868C28.6871 46.2779 28.7081 44.7691 28.6134 43.2603C28.6134 43.2603 29.0239 28.0748 29.1266 25.6328C29.1266 25.6328 29.2082 24.8078 28.1791 24.6565C27.9324 24.5962 27.6729 24.6405 27.4573 24.7796C27.2418 24.9188 27.0878 25.1415 27.029 25.399V25.4815C27.029 25.5695 26.3079 35.4998 26.4421 39.4543C26.4421 39.4543 26.6895 42.0448 24.9735 42.097C24.9735 42.097 23.305 42.3583 23.2234 40.1995C23.2234 40.1995 23.3471 30.459 23.7576 25.6465C23.7598 25.3805 23.6672 25.1232 23.498 24.9245C23.3287 24.7258 23.0948 24.5999 22.8417 24.5713C22.5798 24.5334 22.314 24.6027 22.0998 24.7646C21.8855 24.9265 21.7393 25.1685 21.6916 25.4403C21.6874 25.4685 21.6874 25.4973 21.6916 25.5255C21.6916 25.5255 20.9705 34.848 21.1047 39.7678C21.1047 39.7678 21.31 42.1548 19.4888 42.0667C19.4888 42.0667 17.9676 42.2483 17.8834 40.1308C17.8834 40.1308 18.2966 26.7933 18.4097 25.7648C18.3979 25.5093 18.2992 25.2666 18.1312 25.0806C17.9633 24.8945 17.7372 24.7773 17.4939 24.75H17.3912C17.1339 24.727 16.8777 24.8063 16.6738 24.9719C16.4699 25.1376 16.3332 25.3775 16.2911 25.6438V25.74C16.2911 25.74 15.6121 41.69 15.7042 46.3733C15.7042 46.3733 15.6437 51.1885 19.0466 53.1438C19.0466 53.1438 19.552 53.4462 19.5625 53.9055C19.5625 53.9055 19.9441 62.3645 20.2915 65.0952C20.2915 65.0952 20.4152 65.7497 19.8599 65.7497L11.2932 66C10.8442 65.9972 10.4132 65.8156 10.088 65.4921C9.76273 65.1686 9.56786 64.7277 9.54307 64.2593C8.43418 55.2968 7.90573 46.2663 7.96133 37.2295C7.99124 36.8953 7.90311 36.5612 7.71355 36.2902C7.524 36.0192 7.24612 35.83 6.93228 35.7583C6.93228 35.7583 2.55027 35.3375 1.48964 35.0597C1.21726 34.9855 0.965066 34.8463 0.752855 34.653C0.540644 34.4597 0.374195 34.2177 0.266578 33.9459C0.158961 33.6741 0.113106 33.38 0.132613 33.0865C0.152121 32.7931 0.236459 32.5084 0.379007 32.2548C7.49834 19.4226 17.4751 8.57633 29.4661 0.638005Z" fill="#408A67"/>
</g>
<path d="M83.8974 42.304H77.5054C77.4201 41.6477 77.2454 41.0554 76.9812 40.527C76.717 39.9986 76.3676 39.5469 75.9329 39.1719C75.4982 38.7969 74.9826 38.5114 74.386 38.3153C73.798 38.1108 73.146 38.0085 72.4301 38.0085C71.1602 38.0085 70.065 38.3196 69.1446 38.9418C68.2326 39.5639 67.5295 40.4631 67.0352 41.6392C66.5494 42.8153 66.3065 44.2386 66.3065 45.9091C66.3065 47.6477 66.5536 49.1051 67.048 50.2812C67.5508 51.4489 68.2539 52.331 69.1573 52.9276C70.0693 53.5156 71.1474 53.8097 72.3917 53.8097C73.0906 53.8097 73.7255 53.7202 74.2965 53.5412C74.8761 53.3622 75.3832 53.1023 75.8179 52.7614C76.261 52.4119 76.6233 51.9901 76.9045 51.4957C77.1943 50.9929 77.3946 50.4261 77.5054 49.7955L83.8974 49.8338C83.7866 50.9929 83.45 52.1349 82.8875 53.2599C82.3335 54.3849 81.5707 55.4119 80.5991 56.3409C79.6275 57.2614 78.4429 57.9943 77.0451 58.5398C75.6559 59.0852 74.0622 59.358 72.2639 59.358C69.8946 59.358 67.7724 58.8381 65.8974 57.7983C64.0309 56.75 62.5565 55.2244 61.4741 53.2216C60.3917 51.2187 59.8505 48.7812 59.8505 45.9091C59.8505 43.0284 60.4002 40.5866 61.4997 38.5838C62.5991 36.581 64.0863 35.0597 65.9613 34.0199C67.8363 32.9801 69.9372 32.4602 72.2639 32.4602C73.8491 32.4602 75.315 32.6818 76.6616 33.125C78.0082 33.5597 79.1929 34.1989 80.2156 35.0426C81.2383 35.8778 82.0693 36.9048 82.7085 38.1236C83.3477 39.3423 83.744 40.7358 83.8974 42.304ZM92.5139 59H85.7127L94.5465 32.8182H102.971L111.805 59H105.004L98.8548 39.4148H98.6502L92.5139 59ZM91.6062 48.696H105.822V53.5028H91.6062V48.696ZM127.967 40.6676C127.882 39.7301 127.503 39.0014 126.83 38.4815C126.165 37.9531 125.215 37.6889 123.979 37.6889C123.161 37.6889 122.479 37.7955 121.933 38.0085C121.388 38.2216 120.979 38.5156 120.706 38.8906C120.433 39.2571 120.293 39.679 120.284 40.1562C120.267 40.5483 120.344 40.8935 120.514 41.1918C120.693 41.4901 120.949 41.7543 121.281 41.9844C121.622 42.206 122.031 42.402 122.509 42.5724C122.986 42.7429 123.523 42.892 124.119 43.0199L126.369 43.5312C127.665 43.8125 128.807 44.1875 129.795 44.6562C130.793 45.125 131.628 45.6832 132.301 46.331C132.983 46.9787 133.499 47.7244 133.848 48.5682C134.197 49.4119 134.376 50.358 134.385 51.4062C134.376 53.0597 133.959 54.4787 133.132 55.6634C132.305 56.848 131.117 57.7557 129.565 58.3864C128.023 59.017 126.161 59.3324 123.979 59.3324C121.788 59.3324 119.879 59.0043 118.251 58.348C116.624 57.6918 115.358 56.6946 114.455 55.3565C113.551 54.0185 113.087 52.3267 113.061 50.2812H119.121C119.172 51.125 119.398 51.8281 119.798 52.3906C120.199 52.9531 120.749 53.3793 121.447 53.669C122.155 53.9588 122.973 54.1037 123.902 54.1037C124.754 54.1037 125.479 53.9886 126.075 53.7585C126.68 53.5284 127.145 53.2088 127.469 52.7997C127.793 52.3906 127.959 51.9219 127.967 51.3935C127.959 50.8991 127.805 50.4773 127.507 50.1278C127.209 49.7699 126.749 49.4631 126.126 49.2074C125.513 48.9432 124.729 48.7003 123.774 48.4787L121.038 47.8395C118.771 47.3196 116.986 46.4801 115.682 45.321C114.378 44.1534 113.73 42.5767 113.739 40.5909C113.73 38.9716 114.165 37.5526 115.043 36.3338C115.92 35.1151 117.135 34.1648 118.686 33.483C120.237 32.8011 122.006 32.4602 123.992 32.4602C126.02 32.4602 127.78 32.8054 129.271 33.4957C130.771 34.1776 131.935 35.1364 132.761 36.3722C133.588 37.608 134.01 39.0398 134.027 40.6676H127.967ZM137.581 59V32.8182H155.837V37.9574H143.909V43.3267H154.903V48.4787H143.909V53.8608H155.837V59H137.581ZM159.8 59V32.8182H170.615C172.575 32.8182 174.267 33.1719 175.69 33.8793C177.122 34.5781 178.226 35.5838 179.001 36.8963C179.777 38.2003 180.165 39.7472 180.165 41.5369C180.165 43.3523 179.768 44.8949 178.976 46.1648C178.183 47.4261 177.058 48.3892 175.601 49.054C174.143 49.7102 172.418 50.0384 170.423 50.0384H163.584V45.0526H169.247C170.202 45.0526 170.999 44.929 171.638 44.6818C172.286 44.4261 172.776 44.0426 173.108 43.5312C173.44 43.0114 173.607 42.3466 173.607 41.5369C173.607 40.7273 173.44 40.0582 173.108 39.5298C172.776 38.9929 172.286 38.5923 171.638 38.3281C170.99 38.0554 170.193 37.919 169.247 37.919H166.128V59H159.8ZM174.54 47.0341L181.06 59H174.156L167.764 47.0341H174.54ZM189.964 32.8182V59H183.636V32.8182H189.964ZM193.08 37.9574V32.8182H215.209V37.9574H207.27V59H201.032V37.9574H193.08ZM241.816 45.9091C241.816 48.7898 241.262 51.2315 240.154 53.2344C239.046 55.2372 237.546 56.7585 235.654 57.7983C233.771 58.8381 231.657 59.358 229.313 59.358C226.961 59.358 224.843 58.8338 222.96 57.7855C221.076 56.7372 219.58 55.2159 218.472 53.2216C217.373 51.2187 216.823 48.7812 216.823 45.9091C216.823 43.0284 217.373 40.5866 218.472 38.5838C219.58 36.581 221.076 35.0597 222.96 34.0199C224.843 32.9801 226.961 32.4602 229.313 32.4602C231.657 32.4602 233.771 32.9801 235.654 34.0199C237.546 35.0597 239.046 36.581 240.154 38.5838C241.262 40.5866 241.816 43.0284 241.816 45.9091ZM235.347 45.9091C235.347 44.2045 235.104 42.7642 234.619 41.5881C234.141 40.4119 233.451 39.5213 232.548 38.9162C231.653 38.3111 230.575 38.0085 229.313 38.0085C228.06 38.0085 226.982 38.3111 226.079 38.9162C225.175 39.5213 224.481 40.4119 223.995 41.5881C223.518 42.7642 223.279 44.2045 223.279 45.9091C223.279 47.6136 223.518 49.054 223.995 50.2301C224.481 51.4062 225.175 52.2969 226.079 52.902C226.982 53.5071 228.06 53.8097 229.313 53.8097C230.575 53.8097 231.653 53.5071 232.548 52.902C233.451 52.2969 234.141 51.4062 234.619 50.2301C235.104 49.054 235.347 47.6136 235.347 45.9091Z" fill="black"/>
<defs>
<clipPath id="clip0_48_299">
<rect width="63.1641" height="66" fill="white"/>
</clipPath>
</defs>
</svg>
